/* XPM */
static char *_b3b5666b43b42bcb0edb1d3a3c2615aWLhoEYyRXocb8Cno[] = {
/* columns rows colors chars-per-pixel */
"32 32 47 1 ",
"  c None",
". c black",
"X c #51001A",
"o c #750026",
"O c #752243",
"+ c #8E5A6A",
"@ c #DB5869",
"# c #A67085",
"$ c #F27D98",
"% c gray53",
"& c #8E8E8E",
"* c #979797",
"= c #A4A4A4",
"- c gray67",
"; c #B6B6B6",
": c #F5809A",
"> c #E8939E",
", c #F9919F",
"< c #F78AA6",
"1 c #F997B5",
"2 c #F797B8",
"3 c #F9ADBE",
"4 c #FAA2C2",
"5 c #FAB1C4",
"6 c #FAB3C6",
"7 c #FCBCCF",
"8 c #FFB0D0",
"9 c #FCB0D6",
"0 c #C8C8C8",
"q c gray79",
"w c gray80",
"e c #CECECE",
"r c gray83",
"t c #D7D7D7",
"y c gray85",
"u c gray87",
"i c #FCC5D6",
"p c #FCD1DB",
"a c #FDC5E2",
"s c #FDD9E4",
"d c #FFDFED",
"f c #FEDFEF",
"g c gray92",
"h c #ECECEC",
"j c #EFEFEF",
"k c #F6F6F6",
"l c white",
/* pixels */
"                                ",
"                                ",
"                                ",
"                                ",
"                                ",
"                                ",
"                                ",
"                  ...           ",
"               ...ere..         ",
"            ...r      r...      ",
"          ..u  XXXXXXX  er....  ",
"        ..u XXO:99999:OX % ej.  ",
"       .u XO:999,::,299:X  %0.  ",
"      .0XO:99,:,444,,299aX %;.  ",
"     .0X:99,:44:4,::4$9a1O% .   ",
"    .gX:99:,::,:::4$29a8:O%y.   ",
"    .*O99$444:4$$$299a8::O .    ",
"   .uoa992,$$$29998f81<:@Xy.    ",
"   .-Oiff9999999af8<11<:O .     ",
"  .u=O63pfaaaffa::<111<@Xy.     ",
" .;= O633<ii11<:::<111@Xr.      ",
" .l= X>33<17ii6:::<1@OXg.       ",
" ..lj&+>3<177s<:::@OX r.        ",
"   ..lk+#@17l11@OXX r..         ",
"     ..lkXXlXXXX  r..           ",
"       ..l00   r...             ",
"         .......                ",
"                                ",
"                                ",
"                                ",
"                                ",
"                                "
};
