/* XPM */
static char *fe093f65cbd54cc1872ce89d801da226SABSjf5JmChJLGah[] = {
/* columns rows colors chars-per-pixel */
"32 32 227 2 ",
"   c #703D00",
".  c #743B14",
"X  c #763D18",
"o  c #7B3E1B",
"O  c #7F3F11",
"+  c #7D3D24",
"@  c #644E09",
"#  c #624E07",
"$  c #745C08",
"%  c #6C4410",
"&  c #724115",
"*  c #73421A",
"=  c #7B401E",
"-  c #74481B",
";  c #704B0B",
":  c #7C4424",
">  c #7B4C24",
",  c #7F4528",
"<  c #744721",
"1  c #803C1C",
"2  c #833814",
"3  c #803F23",
"4  c #82441D",
"5  c #8B4019",
"6  c #834225",
"7  c #83442B",
"8  c #8A432B",
"9  c #844A2A",
"0  c #874728",
"q  c #994927",
"w  c #9E5C2D",
"e  c #965221",
"r  c #9E5D35",
"t  c #884731",
"y  c #A45E2B",
"u  c #A85A29",
"i  c #AA4C35",
"p  c #B3443C",
"a  c #B94B3C",
"s  c #B34E33",
"d  c #AD5434",
"f  c #AA5D3C",
"g  c #A85B38",
"h  c #B2563C",
"j  c #BA533F",
"k  c #996524",
"l  c #9F693A",
"z  c #9D7B31",
"x  c #927A25",
"c  c #A2652E",
"v  c #A17D28",
"b  c #A46431",
"n  c #A76A32",
"m  c #AA6436",
"M  c #B26D35",
"N  c #B96B3C",
"B  c #AB7433",
"V  c #AB763B",
"C  c #A87836",
"Z  c #B37433",
"A  c #B2743D",
"S  c #B47B36",
"D  c #BE4E45",
"F  c #AA5E42",
"G  c #BC5344",
"H  c #B95A46",
"J  c #AC6345",
"K  c #A76B45",
"L  c #B66E45",
"P  c #BB6D44",
"I  c #B46C49",
"U  c #BC6C4C",
"Y  c #B46448",
"T  c #B57445",
"R  c #B5724A",
"E  c #BB724B",
"W  c #BD7545",
"Q  c #BE6C52",
"!  c #BE6753",
"~  c #BA7150",
"^  c #C34B46",
"/  c #C54B4A",
"(  c #CA4B4C",
")  c #C34747",
"_  c #C15247",
"`  c #C5524B",
"'  c #CA534D",
"]  c #C65B4D",
"[  c #CC5B4D",
"{  c #D1564F",
"}  c #D04950",
"|  c #CA5651",
" . c #D25251",
".. c #C26A4C",
"X. c #C7664B",
"o. c #C4794C",
"O. c #CB744D",
"+. c #C26C53",
"@. c #C36A58",
"#. c #D16154",
"$. c #D76E5C",
"%. c #D26557",
"&. c #C17352",
"*. c #CD7553",
"=. c #C57952",
"-. c #CC7953",
";. c #C97658",
":. c #D97E57",
">. c #DE735D",
",. c #D37D5A",
"<. c #DA7E5B",
"1. c #D37857",
"2. c #E27F5F",
"3. c #CC7F61",
"4. c #DC7A60",
"5. c #DA7060",
"6. c #E27A61",
"7. c #88AB15",
"8. c #8CAC1A",
"9. c #94AC15",
"0. c #94AE1B",
"q. c #9BAD1C",
"w. c #8EB414",
"e. c #8EB31B",
"r. c #8DB91D",
"t. c #8AB916",
"y. c #92BB13",
"u. c #94B51C",
"i. c #9AB61B",
"p. c #93BB1C",
"a. c #9BBA1E",
"s. c #95B515",
"d. c #A1B41D",
"f. c #8B8828",
"g. c #9C8728",
"h. c #99962B",
"j. c #989834",
"k. c #A3862D",
"l. c #A0892D",
"z. c #A2992C",
"x. c #A58532",
"c. c #AC863A",
"v. c #AD8E3B",
"b. c #A78835",
"n. c #B38B3C",
"m. c #B28634",
"M. c #A79336",
"N. c #AC9434",
"B. c #A99D31",
"V. c #B3943C",
"C. c #B79A3A",
"Z. c #95AC23",
"A. c #99AD24",
"S. c #9CAA2A",
"D. c #98A326",
"F. c #8DB422",
"G. c #8EBC23",
"H. c #94B523",
"J. c #9BB424",
"K. c #94BB24",
"L. c #9BBB24",
"P. c #94B229",
"I. c #9CB42B",
"U. c #96BC2B",
"Y. c #9CBC2A",
"T. c #9EA634",
"R. c #9DB432",
"E. c #A3AC2C",
"W. c #A6AA2A",
"Q. c #A3B625",
"!. c #A1BA24",
"~. c #A4B42C",
"^. c #A5BC2D",
"/. c #AAB22B",
"(. c #B0B32E",
"). c #A6A632",
"_. c #A9A533",
"`. c #A5AC34",
"'. c #AAAB34",
"]. c #ABA63B",
"[. c #AEAB3B",
"{. c #A4A939",
"}. c #B2A43B",
"|. c #B2AC3C",
" X c #B3A836",
".X c #A1B531",
"XX c #ADB334",
"oX c #A3BA35",
"OX c #ACBB36",
"+X c #AAB439",
"@X c #ACB93D",
"#X c #A4B939",
"$X c #B5B739",
"%X c #95C21C",
"&X c #98C122",
"*X c #9CC22C",
"=X c #96C226",
"-X c #9EC531",
";X c #A2C22C",
":X c #A5C427",
">X c #A2C431",
",X c #A2C932",
"<X c #BB9242",
"1X c #BC9C41",
"2X c #B49541",
"3X c #B1AF41",
"4X c #B7A845",
"5X c #BEB54E",
"6X c #C68C4A",
"7X c #C48949",
"8X c #C39247",
"9X c #C4934A",
"0X c #CD8354",
"qX c #CE8A54",
"wX c #CE825B",
"eX c #D28456",
"rX c #D4835C",
"tX c #DB825D",
"yX c #D38A5C",
"uX c #D9885D",
"iX c #C7B350",
"pX c #D68563",
"aX c #DB8261",
"sX c #D68A62",
"dX c #DA8A61",
"fX c #D88C6C",
"gX c #E38263",
/* pixels */
"J.J.H.H.K.p.%X:Xa.L.H.P.U.K.t.%Xt.r.H.J.A.Q.Q.a.*XU.Y.Y.L.p.y.y.",
"!.a.H.K.r.p.p.p.:XL.;XY.H.K.&Xu.I.I.`.'.XXW.0.L.K.L.*XY.Y.K.p.y.",
"s.w.t.p.r.K.K.p.u.L.a.u.u.J.~.$X4X1Xx.v N.}.E.Y.p.K.U.U.H.H.K.t.",
"w.p.&X&XK.F.K.K.e.L.0.9./.XX}.1XS M y y c V.|.S.L.p.K.H.H.Y.*X*X",
"K.,X;XY.Y.H.F.*XK.J.W. XC.m.Z y d s j G d n v.[.A.e.e.H.H.H.;X>X",
"U.-XY.J.L.H.K.-XoXOX XC.Z u s a ^ ` ( / G d n V.].A.8.7.e.H.Y.^.",
"U.U.J.u.0.u.H.I.+X5Xn.M X.[ { ( / ( / ^ ` G d b 2X].Z.7.e.p.L.L.",
"H.e.K.a.9.0.~.).4Xc.M *.>.{  .( / / ( / / / _ h c v._.Z.e.w.u.i.",
"H.H.p.p.p.q.|.2XV N -.,.gX>.[ [ ` / / ( ( ( ( ^ H w 2X3X.XY.p.p.",
"L.e.u.u.^.$X1XB P ,.<.<.<.*.1.X.[ / / ( ( ( } ( D h b v.3XI.K.=X",
"J.Z.A.E.|.C.S N 1.aXtXtXeXdX,.1.#.' / / / ( ( / ( _ h b c.].I.K.",
"A.A.'.}.m.Z N <.gXtXpXwXrXrXtXaX$.#.| / / / / / / ) ` h k M..XK.",
"J.D.}.n.M O.tX<.,.0XE q q q <.<.4.$.%.| ` D _ ^ / / ^ G e x +XL.",
"Y.~.N.k o.<.gX<.rXdXo.5 2 i aXgX4.4.>.%.| _ G D ^ ^ p i y V.XXJ.",
"a.^.z.v qXeX<.<.,.rXyXE g rXrX<.<.<.6.>.#.] G a p p G g V iX~.u.",
"w.L.XXiX6XeXtX,.rX-.rXsXsXrXpX,.,.<.2.>.%.] j i G H Y T b.[.J.p.",
"u.H.E.B.9XeXtXaXrXyX=.m g J ~ fXpX-.<.<.*.U f U U U P A k.).I.K.",
"K.H.I._.8X0X,.rXrXw 2 1 1 o 0 J 3.pXtXtX-.U I E Q U U A k.).I.H.",
"L.L.~._.8X0XrXwXr 4 6 0 7 7 7 1 J rXtX<.*.U &.Q +.Q ..T x.].R.F.",
"L.;X^.).8XyXpX&.4 X 6 7 + 6 8 6 0 =.<.:.*.U +.+.@.! +.T x.[.oXH.",
":X:X^.).8XrXpXY o = , t t 7 8 8 o R uXtX*...X.+.@.! +.T x.|.OXY.",
":XL.J._.8XeX,.F o : : + 7 7 8 6 o K dX<.*.....+.+.Q Q T k.[.OXQ.",
"K.H.H.`.8XeXpXF . < : 7 9 : : 6 + J aX<.O.P P E E R R V g._.~.J.",
"F.K.U.`.<XqXpXf * < : : : : 9 6 3 Y aXtX-.P W L T R T V l.'.I.I.",
"K.F.H.D.<XqXsXf X : : : : : : 9 = I dXrX=.E L E E I E V l.'.P.K.",
"U.H.H.E.<X7XwXg . = + + , , : : o K sXrX=.U L L R T T C g.S.0.H.",
"K.H.J.'.1X7XyXm O 4 6 + : , : : : K pX,.;.Q E R T V C x.h.J.u.p.",
"L.Y.Q.(.C.<X9Xk   ; & & & - > > * K sXrX-.L A B z b.M.|.~.L.L.u.",
"*X;XQ./.'.].4Xg.$ $ $ @ # # # @ % l yXeXW C b.z.T.R.S.I.Y.*XY.H.",
",XY.i.Q..X#X@X`.'._.{.T.j.h.f.f.x b.9X9XV.C.|.@XY.U.8.e.p.*X>XY.",
"-XL.i.i.K.H.H.L.A.A.I.#XoX.X.X.XI.~.(.$X+X@XoXI.7.u.J.!.u.p.K.*X",
"K.L.a.i.G.G.r.K.i.i.Y.>XL.0.J.H.t.y.s.Q.Z.U.H.F.L.i.q.d.i.p.r.G."
};
