/* XPM */
static char *a17208e6789b40f8fec4bffff66ca9d6xnacTmoJX5fEgd02[] = {
/* columns rows colors chars-per-pixel */
"50 48 30 1 ",
"  c None",
". c #181425",
"X c #5B3A37",
"o c #244F2A",
"O c #2E5839",
"+ c #39732D",
"@ c #386036",
"# c #6A402E",
"$ c #437B3C",
"% c #306F44",
"& c #347645",
"* c #546942",
"= c #717E4B",
"- c #A36A51",
"; c #B86F50",
": c #A57D69",
"> c #3E8948",
", c #4EA34A",
"< c #53AD4B",
"1 c #63C74D",
"2 c #94944F",
"3 c #84955A",
"4 c #87A24E",
"5 c #9E9A60",
"6 c #AEB462",
"7 c #E4A672",
"8 c #9CCC74",
"9 c #E6B98A",
"0 c #B1CF83",
"q c #EAD4AA",
/* pixels */
"                                                  ",
"                                                  ",
"                                                  ",
"                                                  ",
"                                                  ",
"                                                  ",
"                                                  ",
"                                                  ",
"                                                  ",
"                                                  ",
"                                                  ",
"                                                  ",
"                                                  ",
"                                                  ",
"                                                  ",
"                                                  ",
"                                                  ",
"                                                  ",
"                                                  ",
"                                                  ",
"                   +111     o>>                   ",
"                  +11111   o>>>>                  ",
"                  #41111112;4,>>                  ",
"                  #41@.$112;41@O                  ",
"                  +1@...$11111@.                  ",
"                +111@...$11111@.O                 ",
"            +11241112X.$111111,>>                 ",
"           +111111111111,<1111,%&                 ",
"           +12;=<,<111111,>>>>%&>                 ",
"           +12;4,><111110qqqqq973                 ",
"           +11111,<11110qqqqqq97                  ",
"           #411,>><11116777777-*                  ",
"            +1080:*<108097773>535                 ",
"                                                  ",
"                                                  ",
"                                                  ",
"                                                  ",
"                                                  ",
"                                                  ",
"                                                  ",
"                                                  ",
"                                                  ",
"                                                  ",
"                                                  ",
"                                                  ",
"                                                  ",
"                                                  ",
"                                                  "
};
