/* XPM */
static char *_c781310adef4221af029da5aa6fd37ebXyLGI7ovpZoNr4U[] = {
/* columns rows colors chars-per-pixel */
"288 48 12 1 ",
"  c None",
". c #181425",
"X c #733E39",
"o c #265C42",
"O c #A22633",
"+ c #E43B44",
"@ c #B86F50",
"# c #3E8948",
"$ c #63C74D",
"% c #E4A672",
"& c #EAD4AA",
"* c white",
/* pixels */
"                                                                                                                                                                                                                                                                                                ",
"                                                                                                                                                                                                                                                                                                ",
"                                                                                                                                                                                                                                                                                                ",
"                                                                                                                                                                                                                                                                                                ",
"                                                                                                                                                                                                                                                                                                ",
"                                                                                                                                                                                                                                                                                                ",
"                                                                                                                                                                                                                                                                                                ",
"                                                                                                                                                                                                                                                                                                ",
"                                                                                                                                                                                                                                                                                                ",
"                                                                                                                                                                                                                                                                                                ",
"                                                                                                                                                                                                                                                                                                ",
"                                                                                                                                                                                                                                                                                                ",
"                                                                                                                                                                                                                                                                                                ",
"                                                                                                                                                                                                                                                                                                ",
"                                                                                                                                                                                                                                                                                                ",
"                                                                                                                                                                                                                  $$$$     ###                                                                  ",
"                                                                                                                                                                  $$$$     ###                                   $$$..$   ##..#                                   $$$$     ###                  ",
"                 $$$$     ###                                                                                                                                    $$$..$   ##..#                                  @$....$$@@$...                                  $$$..$   ##..#                 ",
"                $$$..$   ##..#                                    $$$$     ###                                                                                   @$....$$@@$...                                  @$....$$$$$$..                                  @$....$$@@$...                 ",
"                @$....$$@@$...                                   $$$..$   ##..#                                                                                  @$....$$$$$$..                                  $$$..$$$$$$$##                                  @$....$$$$$$..                 ",
"                @$....$$$$$$..                                   @$....$$@@$...                                   $$$$     ###                                   $$$..$$$$$$$##                                  $$$$$$$$$$$$###                                 $$$..$$$$$$$##                 ",
"                $$$..$$$$$$$##                                   @$....$$$$$$..                                  $$$$$$   #####                                  $$$$$$$$$$$$###                                 $$@$$$$$$OOOO##          ++**                   $$$$$$$$$$$$###              * ",
"                $$$$$$#$$$$$#o#                                  $$$..$$$$$$$##                                  @$$$$$$$@@$###                                  $$@$$$$$$OOOO##  ********                       $$$$$$$OOO+++++++++++++++++  *                  $$@$$$$$$OOOO##++             *",
"               $$$@$$$$#####o##                                  $$$$$$#$$$$$#o#                                 @$$..$$$@@$$.#                                  $$$$$$$OOO++****************                  @$$$$$$$&&&&&&%%#          *****                  $$$$$$$OOO+++++++            **",
"              @$$$$$$$&&&&&&%%#                                 $$$@$$$$#####o##                                 $$....$$$$$$..                                @$$$$$$$&&&&&&%%#                              $$$$$$$$&&&&&&&%%%                               @$$$$$$$&&&&&&%%#                ",
"             $$$$$$$$&&&&&&&%%%                               @$$$$$$$$&&&&&&%%#                               $$$$....$$$$$$..#                              $$$$$$$$&&&&&&&%%%                             $$$$$$$$$&&&&&&&%%%                              $$$$$$$$&&&&&&&%%%                ",
"            $$$$$$$$$&&&&&&&%%%                              $$$$$$$$$&&&&&&&%%%                           $$$@$$$$@..$$$$$$$###                             $$$$$$$$$&&&&&&&%%%                            $@@#$#$$$$&&&&&&&%%                              $$$$$$$$$&&&&&&&%%%                ",
"            $@@#$#$$$&&&&&&&%%                              $$$$$$$$$$&&&&&&&%%%                          $$$$$$$$$$$$$#$$$$$#o#                            $@@#$#$$$$&&&&&&&%%                            $$@@$##$$$%%%%%%%@#                              $@@#$#$$$$&&&&&&&%%                 ",
"           $$@@$##$$$%%%%%%%@#                              $@@#$#$$$$&&&&&&&%%                           $$@@#$#$$$$$$$#####o##                           $$@@$##$$$%%%%%%%@#                             $$$$$$#$@@%%%%%%%##                             $$@@$##$$$%%%%%%%@#                  ",
"           $$$$$$#$@@%%%%%%%##                             $$@@$##$$$%%%%%%%@#                            $$@@$##$$$$$$&&&&&&%%#                           $$$$$$#$@@%%%%%%%##                             @$$$$$#$@@%%%%%%%##                             $$$$$$#$@@%%%%%%%##                  ",
"           @$$$$$#$@@%%%%%%%XX                             $$$$$$#$@@%%%%%%%##                            $$$$$$#$$$$$&&&&&&&%%                            @$$$$$#$@@%%%%%%%XX                             @$$$$$#$$$%%%%%%%XX                             @$$$$$#$@@%%%%%%%XX                  ",
"           $$$####$$$$%%%%%%XX#                            @$$####$$$$%%%%%%XX#                           @$$$###$$$$$%%%%%%%X#                            $$$####$$$$%%%%%%XX#                            $$$####$$$$%%%%%%XX#                            $$$####$$$$%%%%%%XX#                 ",
"            $&$&#X#$&$&%%%%##%#%                           $$&$&#X#$&$&%%%%##%#%                           $$&$&X#$$&$&%%%%##%#%                            $&$&#X#$&$&%%%%##%#%                            $&$&#X#$&$&%%%%##%#%                            $&$&#X#$&$&%%%%##%#%                ",
"                                                                                                                                                                                                                                                                                                ",
"                                                                                                                                                                                                                                                                                                ",
"                                                                                                                                                                                                                                                                                                ",
"                                                                                                                                                                                                                                                                                                ",
"                                                                                                                                                                                                                                                                                                ",
"                                                                                                                                                                                                                                                                                                ",
"                                                                                                                                                                                                                                                                                                ",
"                                                                                                                                                                                                                                                                                                ",
"                                                                                                                                                                                                                                                                                                ",
"                                                                                                                                                                                                                                                                                                ",
"                                                                                                                                                                                                                                                                                                ",
"                                                                                                                                                                                                                                                                                                ",
"                                                                                                                                                                                                                                                                                                ",
"                                                                                                                                                                                                                                                                                                ",
"                                                                                                                                                                                                                                                                                                "
};
