/* XPM */
static char *_f5a261a4d3a4ae09a90ac9f7b54f210VujG66fCBJWndwAS[] = {
/* columns rows colors chars-per-pixel */
"32 32 96 2 ",
"   c #6D9010",
".  c #739712",
"X  c #759814",
"o  c #779B14",
"O  c #789E12",
"+  c #7A9D16",
"@  c #7B9E17",
"#  c #7C9F17",
"$  c #7C9F18",
"%  c #7AA013",
"&  c #7CA214",
"*  c #7DA314",
"=  c #7CA016",
"-  c #7EA217",
";  c #7EA119",
":  c #81A716",
">  c #82A816",
",  c #82A817",
"<  c #83A917",
"1  c #81A518",
"2  c #80A519",
"3  c #82A619",
"4  c #83A719",
"5  c #83A61B",
"6  c #84A71B",
"7  c #85AB18",
"8  c #84A81A",
"9  c #86AA1B",
"0  c #87AB1B",
"q  c #87AD18",
"w  c #86AC19",
"e  c #87AD19",
"r  c #88AE19",
"t  c #89AF19",
"y  c #88AE1A",
"u  c #89AF1A",
"i  c #8AAF1B",
"p  c #88AB1D",
"a  c #88AC1C",
"s  c #89AD1C",
"d  c #8AAE1C",
"f  c #8AAE1D",
"g  c #8BAF1D",
"h  c #8AAF1F",
"j  c #8AB01A",
"k  c #8CB21B",
"l  c #8DB31B",
"z  c #8CB01D",
"x  c #8CB21C",
"c  c #8DB31C",
"v  c #8DB11E",
"b  c #8EB21E",
"n  c #8FB31F",
"m  c #8EB41C",
"M  c #8FB51D",
"N  c #90B61D",
"B  c #91B71D",
"V  c #90B41F",
"C  c #91B71E",
"Z  c #92B81E",
"A  c #93B91E",
"S  c #93B91F",
"D  c #94BA1F",
"F  c #95BB1F",
"G  c #90B523",
"H  c #94B921",
"J  c #95BB20",
"K  c #95BA22",
"L  c #96BB23",
"P  c #96BC20",
"I  c #93B825",
"U  c #96BB26",
"Y  c #99BE25",
"T  c #9ABE25",
"R  c #98BD28",
"E  c #99BE28",
"W  c #9BC026",
"Q  c #9CC028",
"!  c #9FC329",
"~  c #9CC12A",
"^  c #9EC32C",
"/  c #9FC42C",
"(  c #9FC42D",
")  c #A0C529",
"_  c #A0C52A",
"`  c #A1C52B",
"'  c #A0C52D",
"]  c #A3C72C",
"[  c #A4C82D",
"{  c #A4C92D",
"}  c #A5C92E",
"|  c #A6CA2E",
" . c #A7CB2F",
".. c #AACF2F",
"X. c #ABD030",
"o. c #ACD130",
/* pixels */
"P V P P V P P } P P V V P P V P P p P V P P P P ' P P P P P P V ",
"P P V V P V P P ' P } P P P P P V P P V P p P P V } J } P V V P ",
"V V V P P V P V J P P p P V P } P P V P P V P P V P P P V P P V ",
"V P P ' P P V P p P V p P V P ' P V } V P P n J P P V P p P } P ",
"P } ' P P V P P P J V P P P P P n P P P ' } P V P p n n J V ' } ",
"P } P P P V P } } P V P } D P P D 3 P V P ( J } P p g j 6 P P ' ",
"P P P V p P n J ( } M X.P p n D g ; V P P P ' V V P r 9 V D P V ",
"P p P P p V D n V U V o.V # P V % P V 9 P r k P P g M r r g V P ",
"V P n J V Z P g V - V P P V V p P V P P p V P V P ' P P } P P V ",
"P V P V ^ ! P P P V P : P e 3 V P e P V p k e r P P } V V P P P ",
"V p V P Z ' X.P ) e e - e V O P P o.: : : 3 O V P P P P P V V P ",
"V p P P P P ' o.e P 9 k : : V : : O r k e k P V e V P V p V P P ",
"P V V P V P g P P V e : 3 P e W V e g : o.V V k 3 # g J P P P P ",
"P V P P V J n p P : O P P o.V ' V P k V e : P g P P g P P } P V ",
"P P } P P } P $ V P O . : P P P P g M - P V P P ' Y Z P } ' P P ",
"V P P ) Z ) P P P 3 : e e 3 P - 3 e P P V X e P P ' } P ' P P V ",
"P V J 9 - P : V P P o.P O : 3 9 e e @ P P p P V P 3 ! J V P p P ",
"P V P P : X V P P e ' : J e P X V O : k e 3 P P : P P k M V P P ",
"P P J Y O : : 9 M V Z g k P V p : k o.: e P k k . : r - e M P p ",
"P } ' j e 3 e   : 3 : P V P P e e V ' o.O e W P e 3   V P ' P P ",
"} ' P P V - O X P p 9 P P P P V P V k G 3 J 3 : - P X , n P } P ",
"' D P P n P e . O : P V P } P P M r . . O P P V P - P V V P ' P ",
"P V P V P P J r e V P P P ' } P P J : P , X , r @ V P P p D P V ",
"V P P P n M I P ..P V r D P ' V } V : V P P P D M P r P n V P P ",
"P p P p V P D n V P r ; n P P D k r P P M } P V D M X.P P D V P ",
"P P V p P P V P P V P P P g Z P V p V P P D ' } P } ' P P V p P ",
"P V P P P P P P V P ' k P P P P V e e k V V P ( D E g V P P P V ",
"P P ' P P } P } P V ' ! - : o.P e r r 3 j p Z D D n n P P V P P ",
"P } V P P ' } P P V P E r X.V V P ..V P J D Z J V P p P P } P V ",
"} ' P P V P ' V V V P D n Z P p Z Z ' } P P } P P P p V P P } P ",
"' P V P P P V P P p P P P P V P V P P ' P } P P p V P P V P ' P ",
"P P P V P V V P V P P } P V V P V P V P V P V V P P V P P V V P "
};
