/* XPM */
static char *xpm_[] = {
/* columns rows colors chars-per-pixel */
"32 32 212 2 ",
"   c #702E0B",
".  c #6A3E00",
"X  c #6E360C",
"o  c #633A06",
"O  c #6D3711",
"+  c #713514",
"@  c #7A3A11",
"#  c #743A08",
"$  c #6F4300",
"%  c #744602",
"&  c #734B00",
"*  c #7A4A03",
"=  c #734A0B",
"-  c #7B480D",
";  c #675900",
":  c #6B5F00",
">  c #615500",
",  c #7B5402",
"<  c #7B5A02",
"1  c #785506",
"2  c #7B4613",
"3  c #744B1F",
"4  c #6F6600",
"5  c #6E6A00",
"6  c #796102",
"7  c #7C6A09",
"8  c #7B630B",
"9  c #6E7202",
"0  c #6B7E01",
"q  c #797301",
"w  c #78780A",
"e  c #79700B",
"r  c #7D621D",
"t  c #7E762B",
"y  c #843E12",
"u  c #814A00",
"i  c #885005",
"p  c #87500F",
"a  c #855C0C",
"s  c #8B5414",
"d  c #855514",
"f  c #95581F",
"g  c #8C4A18",
"h  c #876805",
"j  c #87750A",
"k  c #896715",
"l  c #867719",
"z  c #997817",
"x  c #B26D1F",
"c  c #835A2E",
"v  c #A25D26",
"b  c #AB6821",
"n  c #B06927",
"m  c #BA632B",
"M  c #AE7B25",
"N  c #A87D26",
"B  c #B7782B",
"V  c #A7613D",
"C  c #BE7D3B",
"Z  c #C86C2B",
"A  c #C87026",
"S  c #C0782E",
"D  c #C8792B",
"F  c #D3732B",
"G  c #D36F34",
"H  c #CB7334",
"J  c #CF7833",
"K  c #C77E39",
"L  c #CD7A39",
"P  c #C37735",
"I  c #D17433",
"U  c #DA7D3D",
"Y  c #E47C3F",
"T  c #B97351",
"R  c #DA7C48",
"E  c #789807",
"W  c #7B9D0C",
"Q  c #769B0F",
"!  c #7D9D11",
"~  c #78A00C",
"^  c #7DA211",
"/  c #7EA915",
"(  c #859A0D",
")  c #858018",
"_  c #858516",
"`  c #8E931D",
"'  c #83991D",
"]  c #9F931D",
"[  c #86A40D",
"{  c #8AB00F",
"}  c #83A513",
"|  c #84AB14",
" . c #8AAC14",
".. c #82A519",
"X. c #8AA51B",
"o. c #85AC1B",
"O. c #8BAB1B",
"+. c #89A713",
"@. c #98AA1B",
"#. c #86B515",
"$. c #8BB216",
"%. c #85B11A",
"&. c #8DB31B",
"*. c #8CBB1C",
"=. c #8BB918",
"-. c #91B415",
";. c #92B916",
":. c #93B51C",
">. c #99B41D",
",. c #93BA1D",
"<. c #9ABA1D",
"1. c #8B8F21",
"2. c #9B8B2B",
"3. c #8C9520",
"4. c #999C26",
"5. c #888035",
"6. c #9F9830",
"7. c #A78023",
"8. c #A88728",
"9. c #B28C2D",
"0. c #B28520",
"q. c #A49B2B",
"w. c #A69827",
"e. c #B7912E",
"r. c #B38B36",
"t. c #AB9F33",
"y. c #AF913B",
"u. c #B79B35",
"i. c #A98934",
"p. c #8DA221",
"a. c #8FAB21",
"s. c #94A224",
"d. c #95AA26",
"f. c #9AAD23",
"g. c #96AB29",
"h. c #9AAD2A",
"j. c #9AA324",
"k. c #87B320",
"l. c #8CB422",
"z. c #8EBA21",
"x. c #93B522",
"c. c #9AB624",
"v. c #94BA23",
"b. c #9ABC24",
"n. c #94B42B",
"m. c #9BB42B",
"M. c #95BA2A",
"N. c #9ABC2A",
"B. c #97A73D",
"V. c #9BA534",
"C. c #9EB333",
"Z. c #9DBA31",
"A. c #A5A32B",
"S. c #ABA52D",
"D. c #A3AF2C",
"F. c #AAAF2F",
"G. c #A0B127",
"H. c #A2BF23",
"J. c #A4B42D",
"K. c #A1BD2C",
"L. c #AAB229",
"P. c #A4A432",
"I. c #AAA332",
"U. c #A3AC34",
"Y. c #ACAC33",
"T. c #B0A332",
"R. c #B4A63D",
"E. c #A4B332",
"W. c #A4BC33",
"Q. c #A9BC31",
"!. c #A6B838",
"~. c #B1BF34",
"^. c #CA843C",
"/. c #C5883A",
"(. c #C5973F",
"). c #8DC01B",
"_. c #92C11D",
"`. c #9AC31F",
"'. c #8FC124",
"]. c #94C123",
"[. c #9BC125",
"{. c #96C12B",
"}. c #9AC22A",
"|. c #9DC129",
" X c #9CC32A",
".X c #96C030",
"XX c #A2C325",
"oX c #A0C52D",
"OX c #A3C42C",
"+X c #A2CA2D",
"@X c #A6C829",
"#X c #A4C531",
"$X c #A4CA33",
"%X c #A9C736",
"&X c #B49342",
"*X c #A99A47",
"=X c #ABAF40",
"-X c #BEA842",
";X c #ACBD40",
":X c #DB8445",
">X c #C79B42",
",X c #D7924A",
"<X c #E1984E",
"1X c #F88F56",
"2X c #ED9C5A",
"3X c #E89352",
"4X c #F9965B",
"5X c #C7A440",
"6X c #CBA24A",
"7X c #E3A153",
"8X c #F39363",
"9X c #F4A361",
/* pixels */
">.,.,.*.*.*.N.%XXX<.-.;.N.N.*._.*.*.].#.<.<.$.[.|.M.x.}.b.,.].,.",
"N.>.,.).*.*.M.b.XXH.XXH.l.M.<.>.*.%.&.,.<.-.<.v.,. X}.M.b.&.;.,.",
"c.-.&.,.,.,.b.>.-.<.,.-.v.v.b.@XN.c.b.c.;.-.[.*.,. X Xx.v.,.,.*.",
">.v.N.}.].,.:.,.-.[.{  .n.c.@.%XJ.J.Q.@.N.b.,.x.v.&.x.M.:.v.+X,.",
"b.OX$XM.].,.:.b.,.,.$.<.%XL.F.S.T.S.F.J.#XOX,.,.b.| O.N.O.&.|.+X",
"b.OXN.x.v.,.v.oX$XM.<.N.F.q 6 < < 6 q J.c.N. X}.x.:.O.X.:.x.M. X",
"b.b.v.:.O.x.v.M.$X Xb.Q.Y.7 * i u , h Y.J.v.{.*.,.x.O.+.&.N.v.*.",
">.:.v.>.$.:.n.x.O.N.:.~.t.r.T P K B e.A.m.l.z.x.b.&.:.x.&.x.*.x.",
"M.z.:.-.<.-.N.l.O.O.-.L.w.B L L H B 9.t.g.l.z.*.,.|.N.>.N.|.x.z.",
"M.z.,.,.`.b.N.b.v.x.f.q.i./.H G Y ,X>Xt.g.O.%.&.-.N.N.c.v.v.M.b.",
"$.#.,.:.b.oX+XoX|.O.B.t 3 T 8X1X4X2X(.w.s.../ #.b.N.N.b.,.&.:.x.",
"&.=.x.x.v.b.XX@X&.n.B.5.c V R Y R P N w.g.O.&.x.$.-.>.,.z.:.v.].",
"M.&.,.,.;.;.:.v.,.x.X.t.y.M D F I D 7.S.!.M.x. .[ +.&.,.x.,.[.b.",
"x.x.v.,.;.`.*.| x.+.( @.t./.J Z J ,Xu.q.d.X.:.v.c.-.&.v.}. Xb.-.",
"b.[.OXb.,.+Xv...&.&.[ ( t.6X,X2X9X7X9.q.m.x.x.:.[.b.x.].+X+X<.,.",
":.:.[.N.,.}.n.M.M.%.+.@.] 9.^.:X:XB z Y.n.W &.`.c.oX X[.[.].;.,.",
"-.;.x.%.o.v.O.x.b.v.$XG.] e.D I Z x z S.m./ v.,.x.c.N.b.z.&.;.;.",
"[.,.M.M.! ( O.b.v.-.N.f.w.e.D Z ^.^.e.w.a.z.*.*.[ c.v.O.&.*.*.;.",
"x.M.M.M.../ O.O.-.&.:.@.S.5X<X3X2X/.8.U.a.l.v.&.( ....o.z.M.&.*.",
" X XM.k.k...! E | +.[ c.S.e.^.:XL b z R.p...l.v.O.! ! ..M.M.x.v.",
"+X@X`.;.*.o.W W %.k.k.h.T.0.D F m n N t.s.Z.o.O.z./ / / &.}.OXH.",
"XX_.,.,.:.d.X.W ! X.E.U.-X0.D Z m v k 2.3.g.&.%.%./ z.z.%.v.OXc.",
"<.>.>.v.Z.C.E.A.A.w.T.&Xy.- # @   X = *XB.p.n.O.o.#.z.].&.&.c.>.",
">.b.n.M.m.0 9 j j h h k d 2 X + + O o r l l ` j.f.m.M.v.l.,.c.b.",
"c.d.M.o.n.! 9 e 8 & - p f g g @ @ @ 2 2 - % % 1 < > 9 !.Z.z.z.*.",
"b.&.M.o.Z.C.B.=Xq.l k < & & s s d = $ $ . $ % 1 8 l 1.C.n.k.#.).",
").,.].x.N.OXN.N.N.W.%Xm.` ) 7 ; : 4 5 w _ 4.U.;X!.W.Z.M.x.,._.$.",
"].].,.[.>.OX Xv.=.=.{.v.x.Z.!.E.4.E.g.g.m.l.x.N.M.l.%.v.:.<.H.<.",
"XXXX<.b.<.@X@X Xb.,.v.,. .,.b.@.N.W.c.n.v.v.m.x.x.b.O.c.OXOX>.c.",
"OXXX<.<.>.b.b.<.:.$.,.v.c.<.,.$.v.x.OXOXb.[.$Xb.c.K.+.>.c.#XN.c.",
"}.].,.,.>.c.,.c.:.&.>.N.x.v.z.x.:.-. XoXv.].].*. .:.,.b.&.,.[.].",
"'.z.z.v.M.x.:.v.:.v.N.#Xv.v.a.M.x.v.v.&.,.].=.*.*.,.*.,.,.=.*.)."
};
